Atma-Bold.ufo
<glyph name="less" format="1">
  <advance width="501"/>
  <unicode hex="003C"/>
  <outline>
    <contour>
      <point x="96" y="274" type="line"/>
      <point x="207" y="358"/>
      <point x="334" y="428"/>
      <point x="472" y="487" type="curve"/>
      <point x="463" y="531"/>
      <point x="454" y="560"/>
      <point x="435" y="597" type="curve"/>
      <point x="311" y="551"/>
      <point x="121" y="448"/>
      <point x="29" y="375" type="curve"/>
      <point x="29" y="311" type="line"/>
      <point x="121" y="238"/>
      <point x="311" y="135"/>
      <point x="435" y="89" type="curve"/>
      <point x="454" y="126"/>
      <point x="463" y="155"/>
      <point x="472" y="199" type="curve"/>
      <point x="334" y="258"/>
      <point x="207" y="328"/>
      <point x="96" y="412" type="curve"/>
    </contour>
  </outline>
</glyph>
<glyph name="L" format="1">
  <advance width="533"/>
  <unicode hex="004C"/>
  <outline>
    <contour>
      <point x="538" y="-73" type="curve"/>
      <point x="538" y="-25"/>
      <point x="525" y="50"/>
      <point x="515" y="81" type="curve"/>
      <point x="451" y="81"/>
      <point x="367" y="69"/>
      <point x="290" y="47" type="curve"/>
      <point x="275" y="137"/>
      <point x="275" y="257"/>
      <point x="275" y="362" type="curve" smooth="yes"/>
      <point x="275" y="489"/>
      <point x="282" y="607"/>
      <point x="293" y="673" type="curve"/>
      <point x="275" y="675"/>
      <point x="258" y="676"/>
      <point x="241" y="676" type="curve" smooth="yes"/>
      <point x="175" y="676"/>
      <point x="115" y="666"/>
      <point x="62" y="652" type="curve"/>
      <point x="62" y="434"/>
      <point x="94" y="77"/>
      <point x="123" y="-106" type="curve"/>
      <point x="279" y="-84"/>
      <point x="388" y="-73"/>
    </contour>
  </outline>
</glyph>
<glyph name="bn_rikaar" format="1">
  <advance width="0"/>
  <unicode hex="09C3"/>
  <outline>
    <contour>
      <point x="99" y="-256" type="curve"/>
      <point x="-96" y="-115" type="line"/>
      <point x="-78" y="-198" type="line"/>
      <point x="80" y="-26" type="line"/>
      <point x="61" y="29" type="line"/>
      <point x="-54" y="30" type="line"/>
      <point x="-54" y="-7" type="line"/>
      <point x="-182" y="-149" type="line"/>
      <point x="-182" y="-178" type="line"/>
      <point x="35" y="-344" type="line"/>
      <point x="62" y="-318"/>
      <point x="85" y="-286"/>
    </contour>
    <contour>
      <point x="0" y="-20" type="move" name="_blwm"/>
    </contour>
  </outline>
</glyph>
<glyph name="perthousand" format="1">
  <advance width="1447"/>
  <unicode hex="2030"/>
  <outline>
    <contour>
      <point x="258" y="784" type="curve"/>
      <point x="114" y="784"/>
      <point x="20" y="674"/>
      <point x="20" y="542" type="curve"/>
      <point x="20" y="447"/>
      <point x="61" y="349"/>
      <point x="188" y="349" type="curve" smooth="yes"/>
      <point x="382" y="349"/>
      <point x="432" y="543"/>
      <point x="432" y="617" type="curve"/>
      <point x="432" y="730"/>
      <point x="365" y="784"/>
    </contour>
    <contour>
      <point x="231" y="687" type="curve" smooth="yes"/>
      <point x="250" y="687"/>
      <point x="266" y="661"/>
      <point x="266" y="579" type="curve" smooth="yes"/>
      <point x="266" y="537"/>
      <point x="262" y="446"/>
      <point x="223" y="446" type="curve" smooth="yes"/>
      <point x="191" y="446"/>
      <point x="182" y="520"/>
      <point x="182" y="563" type="curve" smooth="yes"/>
      <point x="182" y="636"/>
      <point x="200" y="687"/>
    </contour>
    <contour>
      <point x="798" y="414" type="curve"/>
      <point x="654" y="414"/>
      <point x="560" y="304"/>
      <point x="560" y="172" type="curve"/>
      <point x="560" y="77"/>
      <point x="601" y="-21"/>
      <point x="728" y="-21" type="curve" smooth="yes"/>
      <point x="922" y="-21"/>
      <point x="972" y="173"/>
      <point x="972" y="247" type="curve"/>
      <point x="972" y="360"/>
      <point x="905" y="414"/>
    </contour>
    <contour>
      <point x="771" y="317" type="curve" smooth="yes"/>
      <point x="790" y="317"/>
      <point x="806" y="291"/>
      <point x="806" y="209" type="curve" smooth="yes"/>
      <point x="806" y="167"/>
      <point x="802" y="76"/>
      <point x="763" y="76" type="curve" smooth="yes"/>
      <point x="731" y="76"/>
      <point x="722" y="150"/>
      <point x="722" y="193" type="curve" smooth="yes"/>
      <point x="722" y="266"/>
      <point x="740" y="317"/>
    </contour>
    <contour>
      <point x="1253" y="414" type="curve"/>
      <point x="1109" y="414"/>
      <point x="1015" y="304"/>
      <point x="1015" y="172" type="curve"/>
      <point x="1015" y="77"/>
      <point x="1056" y="-21"/>
      <point x="1183" y="-21" type="curve" smooth="yes"/>
      <point x="1377" y="-21"/>
      <point x="1427" y="173"/>
      <point x="1427" y="247" type="curve"/>
      <point x="1427" y="360"/>
      <point x="1360" y="414"/>
    </contour>
    <contour>
      <point x="1226" y="317" type="curve" smooth="yes"/>
      <point x="1245" y="317"/>
      <point x="1261" y="291"/>
      <point x="1261" y="209" type="curve" smooth="yes"/>
      <point x="1261" y="167"/>
      <point x="1257" y="76"/>
      <point x="1218" y="76" type="curve" smooth="yes"/>
      <point x="1186" y="76"/>
      <point x="1177" y="150"/>
      <point x="1177" y="193" type="curve" smooth="yes"/>
      <point x="1177" y="266"/>
      <point x="1195" y="317"/>
    </contour>
    <component base="fraction" xOffset="284" yOffset="-3"/>
  </outline>
</glyph>
<glyph name="uni2206" format="1">
  <advance width="740"/>
  <unicode hex="2206"/>
  <outline>
    <contour>
      <point x="578" y="137" type="line"/>
      <point x="444" y="126"/>
      <point x="290" y="125"/>
      <point x="147" y="135" type="curve"/>
      <point x="201" y="62" type="line"/>
      <point x="255" y="276"/>
      <point x="336" y="499"/>
      <point x="398" y="637" type="curve"/>
      <point x="361" y="635" type="line"/>
      <point x="443" y="447"/>
      <point x="499" y="231"/>
      <point x="516" y="64" type="curve"/>
    </contour>
    <contour>
      <point x="735" y="5" type="curve"/>
      <point x="695" y="297"/>
      <point x="599" y="595"/>
      <point x="477" y="789" type="curve"/>
      <point x="420" y="805"/>
      <point x="374" y="810"/>
      <point x="301" y="810" type="curve"/>
      <point x="168" y="534"/>
      <point x="80" y="303"/>
      <point x="5" y="11" type="curve"/>
      <point x="246" y="-23"/>
      <point x="482" y="-22"/>
    </contour>
  </outline>
</glyph>
<glyph name="bn_b_la" format="1">
  <advance width="525"/>
  <outline>
    <contour>
      <point x="356" y="18" type="line"/>
      <point x="321.861730251" y="128.447343306"/>
      <point x="242.077599508" y="207.236431743"/>
      <point x="150" y="260" type="curve"/>
      <point x="136" y="206" type="line"/>
      <point x="196" y="269"/>
      <point x="284" y="322"/>
      <point x="358" y="346" type="curve"/>
      <point x="330" y="516" type="line"/>
      <point x="188" y="466"/>
      <point x="90" y="405"/>
      <point x="18" y="331" type="curve"/>
      <point x="22" y="267"/>
      <point x="43" y="211"/>
      <point x="84" y="150" type="curve"/>
      <point x="174.142828892" y="129.036551421"/>
      <point x="291" y="78"/>
      <point x="312" y="-68" type="curve"/>
    </contour>
    <contour>
      <point x="369" y="-239"/>
      <point x="439" y="-233"/>
      <point x="483" y="-217" type="curve"/>
      <point x="451.415519061" y="-91.6809304674"/>
      <point x="440.0" y="90.1364605544"/>
      <point x="440" y="292" type="curve" smooth="yes"/>
      <point x="440" y="385"/>
      <point x="443" y="460"/>
      <point x="449" y="538" type="curve"/>
      <point x="329" y="560" type="line"/>
      <point x="309" y="393"/>
      <point x="302" y="282"/>
      <point x="302" y="107" type="curve" smooth="yes"/>
      <point x="302.0" y="-17.3790849673"/>
      <point x="312.881139809" y="-136.028495225"/>
      <point x="317" y="-239" type="curve"/>
    </contour>
    <contour>
      <point x="77" y="518"/>
      <point x="176" y="531"/>
      <point x="278" y="531" type="curve" smooth="yes"/>
      <point x="356" y="531"/>
      <point x="462" y="518"/>
      <point x="525" y="504" type="curve"/>
      <point x="531" y="521"/>
      <point x="536" y="549"/>
      <point x="536" y="577" type="curve" smooth="yes"/>
      <point x="536" y="601"/>
      <point x="532" y="624"/>
      <point x="525" y="639" type="curve"/>
      <point x="469" y="656"/>
      <point x="362" y="670"/>
      <point x="282" y="670" type="curve" smooth="yes"/>
      <point x="179" y="670"/>
      <point x="76" y="656"/>
      <point x="0" y="639" type="curve"/>
      <point x="-8" y="623"/>
      <point x="-11" y="602"/>
      <point x="-11" y="579" type="curve" smooth="yes"/>
      <point x="-11" y="551"/>
      <point x="-6" y="523"/>
      <point x="0" y="504" type="curve"/>
    </contour>
    <contour>
      <point x="117.833046674" y="-218.797500279"/>
      <point x="128.0" y="-171.384615385"/>
      <point x="128" y="-135" type="curve"/>
      <point x="114" y="-140"/>
      <point x="96" y="-143"/>
      <point x="78" y="-143" type="curve" smooth="yes"/>
      <point x="58" y="-143"/>
      <point x="33" y="-131"/>
      <point x="33" y="-113" type="curve" smooth="yes"/>
      <point x="33" y="-100"/>
      <point x="48" y="-93"/>
      <point x="72" y="-93" type="curve" smooth="yes"/>
      <point x="105.824175824" y="-93.0"/>
      <point x="126.158752068" y="-116.448440085"/>
      <point x="153" y="-150" type="curve"/>
      <point x="183" y="-98" type="line"/>
      <point x="159.137401894" y="-14.4809066299"/>
      <point x="118.511811024" y="45.0"/>
      <point x="66" y="45" type="curve" smooth="yes"/>
      <point x="-1" y="45"/>
      <point x="-49" y="-18"/>
      <point x="-49" y="-103" type="curve" smooth="yes"/>
      <point x="-49.0" y="-189.777777778"/>
      <point x="12.8897533611" y="-236.495284283"/>
      <point x="99" y="-245" type="curve"/>
    </contour>
    <contour>
      <point x="206" y="-167"/>
      <point x="230" y="-159"/>
      <point x="249" y="-151" type="curve"/>
      <point x="173" y="-30" type="line"/>
      <point x="105" y="-85" type="line"/>
      <point x="171" y="-175" type="line"/>
    </contour>
    <contour>
      <point x="317" y="-56" type="line"/>
      <point x="294.020107499" y="8.68414185341"/>
      <point x="262.425373134" y="47.0"/>
      <point x="214" y="47" type="curve" smooth="yes"/>
      <point x="174" y="47"/>
      <point x="147" y="3"/>
      <point x="142" y="-64" type="curve"/>
      <point x="180" y="-136" type="line"/>
      <point x="244" y="-143" type="line"/>
      <point x="234" y="-126"/>
      <point x="226" y="-113"/>
      <point x="226" y="-98" type="curve" smooth="yes"/>
      <point x="226" y="-87"/>
      <point x="230" y="-80"/>
      <point x="242" y="-80" type="curve" smooth="yes"/>
      <point x="267.568181818" y="-80.0"/>
      <point x="308" y="-143"/>
      <point x="317" y="-239" type="curve"/>
    </contour>
    <contour>
      <point x="391.0" y="690.0" type="move" name="reph"/>
    </contour>
    <contour>
      <point x="391.0" y="690.0" type="move" name="chandrabindu"/>
    </contour>
    <contour>
      <point x="370" y="-218" type="move" name="blwm"/>
    </contour>
    <contour>
      <point x="212.0" y="-202.0" type="move" name="haln"/>
    </contour>
  </outline>
</glyph>
<glyph name="bn_c_ch_ra" format="1">
  <advance width="929"/>
  <outline>
    <contour>
      <point x="446" y="322" type="curve" smooth="yes"/>
      <point x="446" y="385"/>
      <point x="412" y="417"/>
      <point x="352" y="444" type="curve" smooth="yes"/>
      <point x="294" y="470"/>
      <point x="241" y="502"/>
      <point x="233" y="564" type="curve"/>
      <point x="204" y="485" type="line"/>
      <point x="206" y="432"/>
      <point x="226" y="399"/>
      <point x="257" y="374" type="curve" smooth="yes"/>
      <point x="271" y="363"/>
      <point x="283" y="355"/>
      <point x="283" y="340" type="curve" smooth="yes"/>
      <point x="283" y="269"/>
      <point x="237" y="140"/>
      <point x="192" y="140" type="curve" smooth="yes"/>
      <point x="180" y="140"/>
      <point x="176" y="152"/>
      <point x="176" y="179" type="curve" smooth="yes"/>
      <point x="176" y="282"/>
      <point x="207" y="473"/>
      <point x="247" y="583" type="curve"/>
      <point x="104" y="640" type="line"/>
      <point x="69" y="519"/>
      <point x="44" y="331"/>
      <point x="44" y="224" type="curve" smooth="yes"/>
      <point x="44" y="112"/>
      <point x="123" y="47"/>
      <point x="211" y="47" type="curve" smooth="yes"/>
      <point x="343" y="47"/>
      <point x="446" y="187"/>
    </contour>
    <contour>
      <point x="520" y="541" type="curve" smooth="yes"/>
      <point x="683.928571429" y="541.0"/>
      <point x="841.82900274" y="518.712121483"/>
      <point x="928" y="504" type="curve"/>
      <point x="934" y="520"/>
      <point x="939" y="549"/>
      <point x="939" y="578" type="curve" smooth="yes"/>
      <point x="939" y="604"/>
      <point x="935" y="629"/>
      <point x="928" y="639" type="curve"/>
      <point x="842.89859901" y="655.810153282"/>
      <point x="684.839285714" y="680.0"/>
      <point x="520" y="680" type="curve" smooth="yes"/>
      <point x="309.833333333" y="680.0"/>
      <point x="106.938492135" y="660.603735785"/>
      <point x="0" y="639" type="curve"/>
      <point x="-7" y="629"/>
      <point x="-11" y="604"/>
      <point x="-11" y="578" type="curve" smooth="yes"/>
      <point x="-11" y="549"/>
      <point x="-6" y="520"/>
      <point x="0" y="504" type="curve"/>
      <point x="109.193477913" y="522.379100243"/>
      <point x="310.916666667" y="541.0"/>
    </contour>
    <contour>
      <point x="924" y="-84" type="curve"/>
      <point x="802.807253228" y="4.87468096613"/>
      <point x="707" y="90"/>
      <point x="600" y="145" type="curve"/>
      <point x="647" y="60" type="line"/>
      <point x="787" y="60"/>
      <point x="891" y="123"/>
      <point x="891" y="249" type="curve" smooth="yes"/>
      <point x="891" y="343"/>
      <point x="836" y="426"/>
      <point x="772" y="478" type="curve"/>
      <point x="674" y="488"/>
      <point x="569" y="518"/>
      <point x="550" y="562" type="curve"/>
      <point x="535" y="497" type="line"/>
      <point x="541" y="459"/>
      <point x="587" y="422"/>
      <point x="650" y="414" type="curve"/>
      <point x="638" y="444" type="line"/>
      <point x="641" y="436"/>
      <point x="642" y="428"/>
      <point x="642" y="419" type="curve" smooth="yes"/>
      <point x="642" y="364"/>
      <point x="602" y="316"/>
      <point x="572" y="316" type="curve" smooth="yes"/>
      <point x="559" y="316"/>
      <point x="556" y="324"/>
      <point x="556" y="344" type="curve" smooth="yes"/>
      <point x="556" y="391"/>
      <point x="566" y="494"/>
      <point x="581" y="553" type="curve"/>
      <point x="432" y="585" type="line"/>
      <point x="421" y="513"/>
      <point x="415" y="406"/>
      <point x="415" y="378" type="curve" smooth="yes"/>
      <point x="415" y="288"/>
      <point x="493" y="235"/>
      <point x="565" y="235" type="curve" smooth="yes"/>
      <point x="686" y="235"/>
      <point x="774" y="335"/>
      <point x="774" y="440" type="curve"/>
      <point x="721" y="383" type="line"/>
      <point x="740" y="365"/>
      <point x="751" y="342"/>
      <point x="751" y="308" type="curve" smooth="yes"/>
      <point x="751" y="240"/>
      <point x="700" y="199"/>
      <point x="613" y="199" type="curve" smooth="yes"/>
      <point x="569" y="199"/>
      <point x="514" y="207"/>
      <point x="456" y="228" type="curve"/>
      <point x="470" y="80" type="line"/>
      <point x="594" y="33"/>
      <point x="710.698759751" y="-58.6056179295"/>
      <point x="838" y="-172" type="curve"/>
      <point x="871" y="-146"/>
      <point x="901" y="-114"/>
    </contour>
    <contour>
      <point x="609" y="-259" type="curve"/>
      <point x="655" y="-261"/>
      <point x="718" y="-257"/>
      <point x="760" y="-238" type="curve"/>
      <point x="742.230769231" y="-186.307692308"/>
      <point x="738.625" y="-95.125"/>
      <point x="757" y="2" type="curve"/>
      <point x="648" y="12" type="line"/>
      <point x="625" y="-61"/>
      <point x="606" y="-150"/>
      <point x="606" y="-222" type="curve"/>
      <point x="633" y="-216" type="line"/>
      <point x="614" y="-86"/>
      <point x="551" y="-70"/>
      <point x="490" y="-70" type="curve" smooth="yes"/>
      <point x="469" y="-70"/>
      <point x="433" y="-75"/>
      <point x="416" y="-75" type="curve" smooth="yes"/>
      <point x="396" y="-75"/>
      <point x="381" y="-61"/>
      <point x="381" y="-40" type="curve" smooth="yes"/>
      <point x="381" y="-24"/>
      <point x="386" y="-6"/>
      <point x="391" y="10" type="curve"/>
      <point x="366" y="20"/>
      <point x="329" y="27"/>
      <point x="292" y="27" type="curve"/>
      <point x="275" y="-7"/>
      <point x="263" y="-48"/>
      <point x="263" y="-92" type="curve" smooth="yes"/>
      <point x="263" y="-167"/>
      <point x="322" y="-216"/>
      <point x="416" y="-216" type="curve" smooth="yes"/>
      <point x="452" y="-216"/>
      <point x="484" y="-211"/>
      <point x="517" y="-211" type="curve" smooth="yes"/>
      <point x="570" y="-211"/>
      <point x="599" y="-231"/>
    </contour>
    <contour>
      <point x="660" y="-233" type="move" name="blwm"/>
    </contour>
    <contour>
      <point x="520" y="-226" type="move" name="haln"/>
    </contour>
    <contour>
      <point x="698" y="690" type="move" name="reph"/>
    </contour>
    <contour>
      <point x="698" y="690" type="move" name="chandrabindu"/>
    </contour>
  </outline>
</glyph>
<glyph name="bn_c_ra" format="1">
  <advance width="502"/>
  <outline>
    <contour>
      <point x="438" y="-224" type="curve"/>
      <point x="446.100879701" y="-85.1277765469"/>
      <point x="449" y="65"/>
      <point x="449" y="195" type="curve"/>
      <point x="320" y="126" type="line"/>
      <point x="317" y="16"/>
      <point x="313" y="-87"/>
      <point x="301" y="-170" type="curve"/>
      <point x="354" y="-215" type="line"/>
      <point x="300" y="-118"/>
      <point x="260" y="-61"/>
      <point x="191" y="-61" type="curve" smooth="yes"/>
      <point x="166" y="-61"/>
      <point x="122" y="-70"/>
      <point x="102" y="-70" type="curve" smooth="yes"/>
      <point x="75" y="-70"/>
      <point x="55" y="-51"/>
      <point x="55" y="-21" type="curve" smooth="yes"/>
      <point x="55" y="-5"/>
      <point x="60" y="13"/>
      <point x="65" y="29" type="curve"/>
      <point x="40" y="39"/>
      <point x="3" y="46"/>
      <point x="-34" y="46" type="curve"/>
      <point x="-51" y="12"/>
      <point x="-63" y="-29"/>
      <point x="-63" y="-73" type="curve" smooth="yes"/>
      <point x="-63" y="-158"/>
      <point x="-10" y="-214"/>
      <point x="74" y="-214" type="curve" smooth="yes"/>
      <point x="126" y="-214"/>
      <point x="171" y="-204"/>
      <point x="219" y="-204" type="curve" smooth="yes"/>
      <point x="273" y="-204"/>
      <point x="291" y="-224"/>
      <point x="314" y="-246" type="curve"/>
      <point x="355" y="-244"/>
      <point x="400" y="-238"/>
    </contour>
    <contour>
      <point x="469" y="275" type="curve" smooth="yes"/>
      <point x="469" y="347"/>
      <point x="434" y="383"/>
      <point x="370" y="414" type="curve" smooth="yes"/>
      <point x="309" y="443"/>
      <point x="254" y="479"/>
      <point x="245" y="550" type="curve"/>
      <point x="215" y="460" type="line"/>
      <point x="217" y="400"/>
      <point x="238" y="363"/>
      <point x="271" y="334" type="curve" smooth="yes"/>
      <point x="285" y="322"/>
      <point x="298" y="312"/>
      <point x="298" y="295" type="curve" smooth="yes"/>
      <point x="298" y="215"/>
      <point x="249" y="68"/>
      <point x="202" y="68" type="curve" smooth="yes"/>
      <point x="189" y="68"/>
      <point x="185" y="82"/>
      <point x="185" y="112" type="curve" smooth="yes"/>
      <point x="185" y="230"/>
      <point x="218" y="447"/>
      <point x="260" y="572" type="curve"/>
      <point x="109" y="636" type="line"/>
      <point x="73" y="499"/>
      <point x="46" y="285"/>
      <point x="46" y="164" type="curve" smooth="yes"/>
      <point x="46" y="36"/>
      <point x="129" y="-37"/>
      <point x="222" y="-37" type="curve" smooth="yes"/>
      <point x="361" y="-37"/>
      <point x="469" y="122"/>
    </contour>
    <contour>
      <point x="251" y="528" type="curve" smooth="yes"/>
      <point x="344" y="528"/>
      <point x="442" y="517"/>
      <point x="502" y="504" type="curve"/>
      <point x="505" y="521"/>
      <point x="511" y="549"/>
      <point x="511" y="579" type="curve" smooth="yes"/>
      <point x="511" y="600"/>
      <point x="508" y="624"/>
      <point x="502" y="639" type="curve"/>
      <point x="451" y="654"/>
      <point x="345" y="667"/>
      <point x="251" y="667" type="curve" smooth="yes"/>
      <point x="157" y="667"/>
      <point x="51" y="654"/>
      <point x="0" y="639" type="curve"/>
      <point x="-6" y="624"/>
      <point x="-9" y="601"/>
      <point x="-9" y="578" type="curve" smooth="yes"/>
      <point x="-9" y="550"/>
      <point x="-5" y="521"/>
      <point x="0" y="504" type="curve"/>
      <point x="58" y="517"/>
      <point x="158" y="528"/>
    </contour>
    <contour>
      <point x="340" y="690" type="move" name="reph"/>
    </contour>
    <contour>
      <point x="340" y="690" type="move" name="chandrabindu"/>
    </contour>
    <contour>
      <point x="365" y="-217" type="move" name="blwm"/>
    </contour>
    <contour>
      <point x="197" y="-224" type="move" name="haln"/>
    </contour>
  </outline>
</glyph>
<glyph name="bn_d_ra_uukaar" format="1">
  <advance width="885"/>
  <outline>
    <contour>
      <point x="435" y="535" type="curve" smooth="yes"/>
      <point x="598" y="535"/>
      <point x="793" y="523"/>
      <point x="885" y="504" type="curve"/>
      <point x="890" y="520"/>
      <point x="895" y="551"/>
      <point x="895" y="577" type="curve" smooth="yes"/>
      <point x="895" y="600"/>
      <point x="891" y="625"/>
      <point x="885" y="639" type="curve"/>
      <point x="804" y="661"/>
      <point x="605" y="674"/>
      <point x="439" y="674" type="curve" smooth="yes"/>
      <point x="274" y="674"/>
      <point x="90" y="661"/>
      <point x="0" y="639" type="curve"/>
      <point x="-8" y="625"/>
      <point x="-11" y="598"/>
      <point x="-11" y="577" type="curve" smooth="yes"/>
      <point x="-11" y="551"/>
      <point x="-6" y="521"/>
      <point x="0" y="504" type="curve"/>
      <point x="94" y="523"/>
      <point x="271" y="535"/>
    </contour>
    <contour>
      <point x="529" y="-70" type="line"/>
      <point x="479" y="20"/>
      <point x="435" y="70"/>
      <point x="367" y="70" type="curve" smooth="yes"/>
      <point x="315" y="70"/>
      <point x="223" y="31"/>
      <point x="183" y="31" type="curve" smooth="yes"/>
      <point x="145" y="31"/>
      <point x="116" y="58"/>
      <point x="116" y="100" type="curve" smooth="yes"/>
      <point x="116" y="116"/>
      <point x="121" y="134"/>
      <point x="126" y="150" type="curve"/>
      <point x="101" y="160"/>
      <point x="64" y="167"/>
      <point x="27" y="167" type="curve"/>
      <point x="10" y="133"/>
      <point x="-2" y="92"/>
      <point x="-2" y="48" type="curve" smooth="yes"/>
      <point x="-2" y="-47"/>
      <point x="70" y="-110"/>
      <point x="183" y="-110" type="curve" smooth="yes"/>
      <point x="260" y="-110"/>
      <point x="326" y="-73"/>
      <point x="395" y="-73" type="curve" smooth="yes"/>
      <point x="456" y="-73"/>
      <point x="477" y="-95"/>
      <point x="503" y="-120" type="curve"/>
    </contour>
    <contour>
      <point x="632" y="-90" type="curve"/>
      <point x="617" y="-5"/>
      <point x="610" y="73"/>
      <point x="610" y="147" type="curve" smooth="yes"/>
      <point x="610" y="231"/>
      <point x="624" y="306"/>
      <point x="645" y="378" type="curve"/>
      <point x="601" y="436"/>
      <point x="557" y="473"/>
      <point x="497" y="496" type="curve"/>
      <point x="392" y="433"/>
      <point x="292" y="329"/>
      <point x="193" y="166" type="curve"/>
      <point x="341" y="236" type="line"/>
      <point x="349" y="324"/>
      <point x="356" y="413"/>
      <point x="356" y="492" type="curve" smooth="yes"/>
      <point x="356" y="513"/>
      <point x="355" y="533"/>
      <point x="354" y="552" type="curve"/>
      <point x="237" y="538" type="line"/>
      <point x="234" y="420"/>
      <point x="209" y="280"/>
      <point x="170" y="158" type="curve"/>
      <point x="206" y="132"/>
      <point x="280" y="110"/>
      <point x="334" y="104" type="curve"/>
      <point x="389" y="196"/>
      <point x="486" y="299"/>
      <point x="582" y="357" type="curve"/>
      <point x="528" y="359" type="line"/>
      <point x="499" y="283"/>
      <point x="483" y="188"/>
      <point x="483" y="97" type="curve" smooth="yes"/>
      <point x="483" y="23"/>
      <point x="490" y="-52"/>
      <point x="503" y="-120" type="curve"/>
      <point x="536" y="-120"/>
      <point x="605" y="-106"/>
    </contour>
    <contour>
      <point x="853" y="20" type="curve"/>
      <point x="827" y="81"/>
      <point x="819" y="137"/>
      <point x="819" y="208" type="curve" smooth="yes"/>
      <point x="819" y="232"/>
      <point x="825" y="256"/>
      <point x="828" y="284" type="curve"/>
      <point x="742" y="393" type="line"/>
      <point x="698" y="380"/>
      <point x="660" y="359"/>
      <point x="616" y="341" type="curve"/>
      <point x="608" y="191" type="line"/>
      <point x="661" y="212"/>
      <point x="713" y="236"/>
      <point x="762" y="249" type="curve"/>
      <point x="715" y="296" type="line"/>
      <point x="711" y="251"/>
      <point x="703" y="208"/>
      <point x="703" y="168" type="curve" smooth="yes"/>
      <point x="703" y="109"/>
      <point x="705" y="56"/>
      <point x="718" y="1" type="curve"/>
      <point x="770" y="1"/>
      <point x="820" y="9"/>
    </contour>
    <contour>
      <point x="454.0" y="690.0" type="move" name="reph"/>
    </contour>
    <contour>
      <point x="454.0" y="690.0" type="move" name="chandrabindu"/>
    </contour>
    <contour>
      <point x="398" y="-95" type="move" name="haln"/>
    </contour>
    <contour>
      <point x="567" y="-100" type="move" name="blwm"/>
    </contour>
  </outline>
</glyph>
<glyph name="bn_ekaar.init" format="1">
  <advance width="366"/>
  <outline>
    <contour>
      <point x="327" y="-88"/>
      <point x="374" y="-63"/>
      <point x="417" y="-7" type="curve"/>
      <point x="417" y="34"/>
      <point x="365" y="110"/>
      <point x="320" y="135" type="curve"/>
      <point x="280" y="43"/>
      <point x="259" y="15"/>
      <point x="230" y="15" type="curve" smooth="yes"/>
      <point x="195" y="15"/>
      <point x="175" y="75"/>
      <point x="175" y="182" type="curve" smooth="yes"/>
      <point x="175" y="398"/>
      <point x="228" y="488"/>
      <point x="366" y="504" type="curve"/>
      <point x="372" y="521"/>
      <point x="377" y="552"/>
      <point x="377" y="577" type="curve" smooth="yes"/>
      <point x="377" y="607"/>
      <point x="374" y="625"/>
      <point x="366" y="639" type="curve"/>
      <point x="129" y="593"/>
      <point x="25" y="465"/>
      <point x="25" y="221" type="curve" smooth="yes"/>
      <point x="25" y="38"/>
      <point x="123" y="-88"/>
      <point x="265" y="-88" type="curve" smooth="yes"/>
    </contour>
  </outline>
</glyph>
<glyph name="bn_g_dh_ra" format="1">
  <advance width="817"/>
  <outline>
    <contour>
      <point x="440" y="391" type="curve"/>
      <point x="483" y="365" type="line"/>
      <point x="483" y="529"/>
      <point x="417" y="657"/>
      <point x="289" y="657" type="curve" smooth="yes"/>
      <point x="178" y="657"/>
      <point x="108" y="577"/>
      <point x="108" y="478" type="curve" smooth="yes"/>
      <point x="108" y="460"/>
      <point x="112" y="441"/>
      <point x="117" y="422" type="curve"/>
      <point x="163" y="356" type="line"/>
      <point x="217" y="388"/>
      <point x="272" y="407"/>
      <point x="312" y="407" type="curve" smooth="yes"/>
      <point x="320" y="407"/>
      <point x="325" y="404"/>
      <point x="325" y="395" type="curve" smooth="yes"/>
      <point x="325" y="382"/>
      <point x="292" y="355"/>
      <point x="172" y="313" type="curve"/>
      <point x="194" y="280"/>
      <point x="218" y="248"/>
      <point x="262" y="223" type="curve"/>
      <point x="350" y="259"/>
      <point x="414" y="327"/>
      <point x="414" y="370" type="curve" smooth="yes"/>
      <point x="414" y="442"/>
      <point x="356" y="498"/>
      <point x="289" y="498" type="curve" smooth="yes"/>
      <point x="233" y="498"/>
      <point x="187" y="473"/>
      <point x="150" y="447" type="curve"/>
      <point x="254" y="442" type="line"/>
      <point x="234" y="455"/>
      <point x="223" y="475"/>
      <point x="223" y="490" type="curve" smooth="yes"/>
      <point x="223" y="519"/>
      <point x="257" y="533"/>
      <point x="303" y="533" type="curve" smooth="yes"/>
      <point x="365" y="533"/>
      <point x="440" y="482"/>
    </contour>
    <contour>
      <point x="480" y="-59" type="line"/>
      <point x="460" y="-10"/>
      <point x="343" y="50"/>
      <point x="276" y="86" type="curve"/>
      <point x="259" y="38" type="line"/>
      <point x="336" y="88"/>
      <point x="445" y="121"/>
      <point x="535" y="138" type="curve"/>
      <point x="441" y="259" type="line"/>
      <point x="325" y="220"/>
      <point x="253" y="187"/>
      <point x="182" y="146" type="curve"/>
      <point x="171" y="88"/>
      <point x="176" y="42"/>
      <point x="197" y="-4" type="curve"/>
      <point x="276" y="-11"/>
      <point x="408" y="-57"/>
      <point x="448" y="-114" type="curve"/>
    </contour>
    <contour>
      <point x="807" y="-53" type="curve"/>
      <point x="781" y="8"/>
      <point x="773" y="64"/>
      <point x="773" y="135" type="curve" smooth="yes"/>
      <point x="773" y="159"/>
      <point x="779" y="183"/>
      <point x="782" y="211" type="curve"/>
      <point x="696" y="320" type="line"/>
      <point x="648" y="311"/>
      <point x="612" y="297"/>
      <point x="567" y="285" type="curve"/>
      <point x="559" y="137" type="line"/>
      <point x="611" y="157"/>
      <point x="668" y="165"/>
      <point x="716" y="178" type="curve"/>
      <point x="669" y="223" type="line"/>
      <point x="665" y="178"/>
      <point x="657" y="135"/>
      <point x="657" y="95" type="curve" smooth="yes"/>
      <point x="657" y="36"/>
      <point x="659" y="-17"/>
      <point x="672" y="-72" type="curve"/>
      <point x="724" y="-72"/>
      <point x="774" y="-64"/>
    </contour>
    <contour>
      <point x="459" y="523" type="curve" smooth="yes"/>
      <point x="437" y="417"/>
      <point x="429.0" y="275.0"/>
      <point x="429" y="112" type="curve" smooth="yes"/>
      <point x="429.0" y="39.4303797468"/>
      <point x="441.935852523" y="-213.651770837"/>
      <point x="449" y="-252" type="curve"/>
      <point x="507.360248447" y="-252.0"/>
      <point x="564" y="-244"/>
      <point x="611" y="-227" type="curve"/>
      <point x="592" y="-150"/>
      <point x="575.0" y="141.352017937"/>
      <point x="575" y="288" type="curve" smooth="yes"/>
      <point x="575.0" y="354.947368421"/>
      <point x="574" y="377"/>
      <point x="583" y="450" type="curve" smooth="yes"/>
      <point x="585" y="465"/>
      <point x="596" y="480"/>
      <point x="628" y="482" type="curve" smooth="yes"/>
      <point x="648" y="483"/>
      <point x="669" y="484"/>
      <point x="685" y="486" type="curve" smooth="yes"/>
      <point x="735" y="491"/>
      <point x="778" y="499"/>
      <point x="817" y="504" type="curve"/>
      <point x="823" y="523"/>
      <point x="828" y="552"/>
      <point x="828" y="576" type="curve" smooth="yes"/>
      <point x="828" y="603"/>
      <point x="824" y="626"/>
      <point x="817" y="639" type="curve"/>
      <point x="769" y="632"/>
      <point x="703" y="613"/>
      <point x="665" y="609" type="curve" smooth="yes"/>
      <point x="633" y="606"/>
      <point x="606" y="602"/>
      <point x="571" y="600" type="curve" smooth="yes"/>
      <point x="513" y="596"/>
      <point x="470" y="574"/>
    </contour>
    <contour>
      <point x="469" y="-227" type="line"/>
      <point x="449" y="-89"/>
      <point x="342.293333333" y="-76.0"/>
      <point x="248" y="-76" type="curve" smooth="yes"/>
      <point x="231" y="-76"/>
      <point x="200" y="-78"/>
      <point x="186" y="-78" type="curve" smooth="yes"/>
      <point x="160" y="-78"/>
      <point x="141" y="-64"/>
      <point x="141" y="-43" type="curve" smooth="yes"/>
      <point x="141" y="-27"/>
      <point x="146" y="-9"/>
      <point x="151" y="7" type="curve"/>
      <point x="126" y="17"/>
      <point x="89" y="24"/>
      <point x="52" y="24" type="curve"/>
      <point x="35" y="-10"/>
      <point x="23" y="-51"/>
      <point x="23" y="-95" type="curve" smooth="yes"/>
      <point x="23" y="-170"/>
      <point x="86" y="-219"/>
      <point x="186" y="-219" type="curve" smooth="yes"/>
      <point x="218" y="-219"/>
      <point x="246" y="-217"/>
      <point x="275" y="-217" type="curve" smooth="yes"/>
      <point x="374.428571429" y="-217.0"/>
      <point x="437.432189744" y="-219.775385714"/>
      <point x="449" y="-252" type="curve"/>
    </contour>
    <contour>
      <point x="504" y="-224" type="move" name="blwm"/>
    </contour>
    <contour>
      <point x="326" y="-233" type="move" name="haln"/>
    </contour>
    <contour>
      <point x="527" y="690" type="move" name="reph"/>
    </contour>
    <contour>
      <point x="527" y="690" type="move" name="chandrabindu"/>
    </contour>
  </outline>
</glyph>
<glyph name="bn_h_ba" format="1">
  <advance width="526"/>
  <outline>
    <contour>
      <point x="328" y="-204" type="line"/>
      <point x="303" y="-145"/>
      <point x="220" y="-95"/>
      <point x="144" y="-54" type="curve"/>
      <point x="127" y="-102" type="line"/>
      <point x="196" y="-58"/>
      <point x="288" y="-32"/>
      <point x="394" y="-26" type="curve"/>
      <point x="300" y="95" type="line"/>
      <point x="185" y="65"/>
      <point x="92" y="49"/>
      <point x="29" y="3" type="curve"/>
      <point x="29" y="-53"/>
      <point x="45" y="-99"/>
      <point x="78" y="-152" type="curve"/>
      <point x="159" y="-160"/>
      <point x="250" y="-194"/>
      <point x="296" y="-259" type="curve"/>
    </contour>
    <contour>
      <point x="336" y="-262"/>
      <point x="393" y="-257"/>
      <point x="427" y="-245" type="curve"/>
      <point x="416" y="-209"/>
      <point x="410" y="-165"/>
      <point x="410" y="-107" type="curve" smooth="yes"/>
      <point x="410" y="-77"/>
      <point x="415" y="-40"/>
      <point x="422" y="0" type="curve"/>
      <point x="326" y="11" type="line"/>
      <point x="306" y="-59"/>
      <point x="293" y="-147"/>
      <point x="293" y="-217" type="curve" smooth="yes"/>
      <point x="293" y="-233"/>
      <point x="294" y="-248"/>
      <point x="296" y="-259" type="curve"/>
    </contour>
    <contour>
      <point x="481" y="-124"/>
      <point x="510" y="-92"/>
      <point x="533" y="-62" type="curve"/>
      <point x="425" y="25"/>
      <point x="332" y="95"/>
      <point x="237" y="149" type="curve"/>
      <point x="179" y="95" type="line"/>
      <point x="205" y="92"/>
      <point x="231" y="90"/>
      <point x="255" y="90" type="curve" smooth="yes"/>
      <point x="377" y="90"/>
      <point x="466" y="139"/>
      <point x="466" y="245" type="curve" smooth="yes"/>
      <point x="466" y="368"/>
      <point x="341" y="500"/>
      <point x="215" y="500" type="curve" smooth="yes"/>
      <point x="145" y="500"/>
      <point x="86" y="459"/>
      <point x="86" y="377" type="curve" smooth="yes"/>
      <point x="86" y="351"/>
      <point x="92" y="319"/>
      <point x="112" y="293" type="curve"/>
      <point x="158" y="293"/>
      <point x="216" y="310"/>
      <point x="250" y="333" type="curve"/>
      <point x="242" y="342"/>
      <point x="235" y="348"/>
      <point x="235" y="362" type="curve" smooth="yes"/>
      <point x="235" y="377"/>
      <point x="242" y="388"/>
      <point x="260" y="388" type="curve" smooth="yes"/>
      <point x="292" y="388"/>
      <point x="319" y="356"/>
      <point x="319" y="315" type="curve" smooth="yes"/>
      <point x="319" y="270"/>
      <point x="283" y="252"/>
      <point x="210" y="252" type="curve" smooth="yes"/>
      <point x="164" y="252"/>
      <point x="104" y="259"/>
      <point x="36" y="279" type="curve"/>
      <point x="56" y="104" type="line"/>
      <point x="186" y="62"/>
      <point x="316" y="-18"/>
      <point x="449" y="-150" type="curve"/>
    </contour>
    <contour>
      <point x="65" y="518"/>
      <point x="152" y="531"/>
      <point x="262" y="531" type="curve" smooth="yes"/>
      <point x="372" y="531"/>
      <point x="468" y="518"/>
      <point x="526" y="504" type="curve"/>
      <point x="531" y="521"/>
      <point x="535" y="550"/>
      <point x="535" y="578" type="curve" smooth="yes"/>
      <point x="535" y="601"/>
      <point x="532" y="624"/>
      <point x="526" y="639" type="curve"/>
      <point x="475" y="656"/>
      <point x="376" y="670"/>
      <point x="265" y="670" type="curve" smooth="yes"/>
      <point x="153" y="670"/>
      <point x="64" y="656"/>
      <point x="0" y="639" type="curve"/>
      <point x="-7" y="626"/>
      <point x="-10" y="604"/>
      <point x="-10" y="581" type="curve" smooth="yes"/>
      <point x="-10" y="553"/>
      <point x="-6" y="524"/>
      <point x="0" y="504" type="curve"/>
    </contour>
    <contour>
      <point x="353" y="-240" type="move" name="blwm"/>
    </contour>
    <contour>
      <point x="225" y="-237" type="move" name="haln"/>
    </contour>
    <contour>
      <point x="260" y="690" type="move" name="chandrabindu"/>
    </contour>
    <contour>
      <point x="260" y="690" type="move" name="reph"/>
    </contour>
  </outline>
</glyph>
<glyph name="bn_ha_rikaar" format="1">
  <advance width="692"/>
  <outline>
    <contour>
      <point x="594" y="51"/>
      <point x="644" y="59"/>
      <point x="677" y="70" type="curve"/>
      <point x="651" y="131"/>
      <point x="643" y="187"/>
      <point x="643" y="258" type="curve" smooth="yes"/>
      <point x="643" y="282"/>
      <point x="649" y="306"/>
      <point x="652" y="334" type="curve"/>
      <point x="566" y="443" type="line"/>
      <point x="511" y="426"/>
      <point x="460" y="412"/>
      <point x="405" y="390" type="curve"/>
      <point x="442" y="251" type="line"/>
      <point x="491" y="270"/>
      <point x="541" y="287"/>
      <point x="586" y="299" type="curve"/>
      <point x="539" y="346" type="line"/>
      <point x="535" y="301"/>
      <point x="527" y="258"/>
      <point x="527" y="218" type="curve" smooth="yes"/>
      <point x="527" y="159"/>
      <point x="529" y="106"/>
      <point x="542" y="51" type="curve"/>
    </contour>
    <contour>
      <point x="481" y="-124"/>
      <point x="510" y="-92"/>
      <point x="533" y="-62" type="curve"/>
      <point x="425" y="25"/>
      <point x="332" y="95"/>
      <point x="237" y="149" type="curve"/>
      <point x="179" y="95" type="line"/>
      <point x="205" y="92"/>
      <point x="231" y="90"/>
      <point x="255" y="90" type="curve" smooth="yes"/>
      <point x="377" y="90"/>
      <point x="466" y="139"/>
      <point x="466" y="245" type="curve" smooth="yes"/>
      <point x="466" y="368"/>
      <point x="341" y="500"/>
      <point x="215" y="500" type="curve" smooth="yes"/>
      <point x="145" y="500"/>
      <point x="86" y="459"/>
      <point x="86" y="377" type="curve" smooth="yes"/>
      <point x="86" y="351"/>
      <point x="92" y="319"/>
      <point x="112" y="293" type="curve"/>
      <point x="158" y="293"/>
      <point x="216" y="310"/>
      <point x="250" y="333" type="curve"/>
      <point x="242" y="342"/>
      <point x="235" y="348"/>
      <point x="235" y="362" type="curve" smooth="yes"/>
      <point x="235" y="377"/>
      <point x="242" y="388"/>
      <point x="260" y="388" type="curve" smooth="yes"/>
      <point x="292" y="388"/>
      <point x="319" y="356"/>
      <point x="319" y="315" type="curve" smooth="yes"/>
      <point x="319" y="270"/>
      <point x="283" y="252"/>
      <point x="210" y="252" type="curve" smooth="yes"/>
      <point x="164" y="252"/>
      <point x="104" y="259"/>
      <point x="36" y="279" type="curve"/>
      <point x="56" y="104" type="line"/>
      <point x="186" y="62"/>
      <point x="316" y="-18"/>
      <point x="449" y="-150" type="curve"/>
    </contour>
    <contour>
      <point x="88.9103993129" y="523.14993216"/>
      <point x="210.015267176" y="531.0"/>
      <point x="362" y="531" type="curve" smooth="yes"/>
      <point x="499.372093023" y="531.0"/>
      <point x="619.311107525" y="521.545594735"/>
      <point x="692" y="504" type="curve"/>
      <point x="697" y="521"/>
      <point x="701" y="550"/>
      <point x="701" y="578" type="curve" smooth="yes"/>
      <point x="701" y="601"/>
      <point x="698" y="624"/>
      <point x="692" y="639" type="curve"/>
      <point x="627.861204737" y="660.379598421"/>
      <point x="504.37704918" y="670.0"/>
      <point x="365" y="670" type="curve" smooth="yes"/>
      <point x="210.735849057" y="670.0"/>
      <point x="86.8430301969" y="662.067679896"/>
      <point x="0" y="639" type="curve"/>
      <point x="-7" y="626"/>
      <point x="-10" y="604"/>
      <point x="-10" y="581" type="curve" smooth="yes"/>
      <point x="-10" y="553"/>
      <point x="-6" y="524"/>
      <point x="0" y="504" type="curve"/>
    </contour>
    <contour>
      <point x="364" y="690" type="move" name="reph"/>
    </contour>
    <contour>
      <point x="364" y="690" type="move" name="chandrabindu"/>
    </contour>
  </outline>
</glyph>
<glyph name="bn_l_pa" format="1">
  <advance width="696"/>
  <outline>
    <contour>
      <point x="294" y="319" type="curve"/>
      <point x="281" y="314"/>
      <point x="265" y="311"/>
      <point x="249" y="311" type="curve" smooth="yes"/>
      <point x="212" y="311"/>
      <point x="172" y="322"/>
      <point x="172" y="340" type="curve" smooth="yes"/>
      <point x="172" y="353"/>
      <point x="193" y="361"/>
      <point x="224" y="361" type="curve" smooth="yes"/>
      <point x="266" y="361"/>
      <point x="302" y="343"/>
      <point x="331" y="308" type="curve"/>
      <point x="355" y="363" type="line"/>
      <point x="332" y="449"/>
      <point x="274" y="507"/>
      <point x="210" y="507" type="curve" smooth="yes"/>
      <point x="135" y="507"/>
      <point x="82" y="443"/>
      <point x="82" y="355" type="curve" smooth="yes"/>
      <point x="82" y="247"/>
      <point x="152" y="182"/>
      <point x="252" y="173" type="curve"/>
      <point x="278" y="210"/>
      <point x="294" y="270"/>
    </contour>
    <contour>
      <point x="423" y="315" type="curve"/>
      <point x="345" y="448" type="line"/>
      <point x="271" y="391" type="line"/>
      <point x="343" y="291" type="line"/>
      <point x="377" y="298"/>
      <point x="403" y="307"/>
    </contour>
    <contour>
      <point x="504" y="325" type="line"/>
      <point x="497" y="432"/>
      <point x="454" y="507"/>
      <point x="398" y="507" type="curve" smooth="yes"/>
      <point x="357" y="507"/>
      <point x="322" y="460"/>
      <point x="318" y="400" type="curve"/>
      <point x="359" y="322" type="line"/>
      <point x="423" y="315" type="line"/>
      <point x="411" y="335"/>
      <point x="401" y="353"/>
      <point x="401" y="363" type="curve" smooth="yes"/>
      <point x="401" y="374"/>
      <point x="408" y="380"/>
      <point x="419" y="380" type="curve" smooth="yes"/>
      <point x="452" y="380"/>
      <point x="474" y="332"/>
      <point x="474" y="273" type="curve"/>
    </contour>
    <contour>
      <point x="659" y="-213" type="curve"/>
      <point x="640.630416543" y="-138.50113376"/>
      <point x="615.0" y="145.338565022"/>
      <point x="615" y="288" type="curve"/>
      <point x="615" y="372"/>
      <point x="615.139269074" y="421.193734921"/>
      <point x="629" y="540" type="curve"/>
      <point x="510" y="573" type="line"/>
      <point x="479.960217077" y="456.306997109"/>
      <point x="469" y="320"/>
      <point x="469" y="112" type="curve" smooth="yes"/>
      <point x="469.0" y="41.0253164557"/>
      <point x="487.794842895" y="-206.944906316"/>
      <point x="495" y="-244" type="curve"/>
      <point x="554" y="-244"/>
      <point x="618" y="-236"/>
    </contour>
    <contour>
      <point x="341" y="535" type="curve" smooth="yes"/>
      <point x="460" y="535"/>
      <point x="603" y="523"/>
      <point x="696" y="504" type="curve"/>
      <point x="702" y="525"/>
      <point x="705" y="553"/>
      <point x="705" y="578" type="curve" smooth="yes"/>
      <point x="705" y="603"/>
      <point x="702" y="626"/>
      <point x="696" y="639" type="curve"/>
      <point x="620" y="660"/>
      <point x="473" y="674"/>
      <point x="346" y="674" type="curve" smooth="yes"/>
      <point x="223" y="674"/>
      <point x="89" y="661"/>
      <point x="0" y="639" type="curve"/>
      <point x="-7" y="627"/>
      <point x="-11" y="607"/>
      <point x="-11" y="581" type="curve" smooth="yes"/>
      <point x="-11" y="555"/>
      <point x="-7" y="524"/>
      <point x="0" y="504" type="curve"/>
      <point x="97" y="524"/>
      <point x="226" y="535"/>
    </contour>
    <contour>
      <point x="314" y="204" type="curve" smooth="yes"/>
      <point x="234" y="204"/>
      <point x="155" y="154"/>
      <point x="97" y="79" type="curve"/>
      <point x="103" y="41"/>
      <point x="116" y="4"/>
      <point x="137" y="-32" type="curve"/>
      <point x="182" y="-32"/>
      <point x="225" y="-51"/>
      <point x="225" y="-93" type="curve" smooth="yes"/>
      <point x="225" y="-106"/>
      <point x="220" y="-123"/>
      <point x="205" y="-134" type="curve"/>
      <point x="276" y="-78" type="line"/>
      <point x="289" y="-70"/>
      <point x="298" y="-51"/>
      <point x="298" y="-30" type="curve" smooth="yes"/>
      <point x="298" y="4"/>
      <point x="275" y="34"/>
      <point x="240" y="52" type="curve"/>
      <point x="224" y="-5" type="line"/>
      <point x="264" y="53"/>
      <point x="294" y="76"/>
      <point x="336" y="76" type="curve" smooth="yes"/>
      <point x="404" y="76"/>
      <point x="481" y="17"/>
      <point x="481" y="-94" type="curve"/>
      <point x="525" y="-122" type="line"/>
      <point x="525" y="62"/>
      <point x="449" y="204"/>
    </contour>
    <contour>
      <point x="500" y="-18" type="curve"/>
      <point x="445" y="100" type="line"/>
      <point x="368" y="-5"/>
      <point x="275" y="-81"/>
      <point x="190" y="-145" type="curve"/>
      <point x="214" y="-192"/>
      <point x="247" y="-231"/>
      <point x="291" y="-262" type="curve"/>
      <point x="377" y="-188"/>
      <point x="460" y="-100"/>
    </contour>
    <contour>
      <point x="532" y="690" type="move" name="reph"/>
    </contour>
    <contour>
      <point x="532" y="690" type="move" name="chandrabindu"/>
    </contour>
    <contour>
      <point x="552" y="-218" type="move" name="blwm"/>
    </contour>
    <contour>
      <point x="387" y="-200" type="move" name="haln"/>
    </contour>
  </outline>
</glyph>
<glyph name="bn_n_ma" format="1">
  <advance width="991"/>
  <outline>
    <contour>
      <point x="910" y="-207" type="curve"/>
      <point x="868" y="-81"/>
      <point x="832" y="87"/>
      <point x="832" y="296" type="curve" smooth="yes"/>
      <point x="832" y="382"/>
      <point x="836" y="465"/>
      <point x="841" y="540" type="curve"/>
      <point x="725" y="560" type="line"/>
      <point x="696" y="445"/>
      <point x="689" y="286"/>
      <point x="689" y="176" type="curve" smooth="yes"/>
      <point x="689" y="-44"/>
      <point x="724" y="-163"/>
      <point x="753" y="-250" type="curve"/>
      <point x="805" y="-250"/>
      <point x="869" y="-232"/>
    </contour>
    <contour>
      <point x="501" y="541" type="curve" smooth="yes"/>
      <point x="698" y="541"/>
      <point x="888" y="522"/>
      <point x="991" y="504" type="curve"/>
      <point x="997" y="520"/>
      <point x="1002" y="549"/>
      <point x="1002" y="578" type="curve" smooth="yes"/>
      <point x="1002" y="604"/>
      <point x="998" y="629"/>
      <point x="991" y="639" type="curve"/>
      <point x="890" y="659"/>
      <point x="699" y="680"/>
      <point x="501" y="680" type="curve" smooth="yes"/>
      <point x="298" y="680"/>
      <point x="104" y="659"/>
      <point x="0" y="639" type="curve"/>
      <point x="-7" y="629"/>
      <point x="-11" y="604"/>
      <point x="-11" y="578" type="curve" smooth="yes"/>
      <point x="-11" y="549"/>
      <point x="-6" y="520"/>
      <point x="0" y="504" type="curve"/>
      <point x="106" y="522"/>
      <point x="299" y="541"/>
    </contour>
    <contour>
      <point x="577" y="-23" type="curve"/>
      <point x="567" y="22"/>
      <point x="541" y="200"/>
      <point x="541" y="272" type="curve" smooth="yes"/>
      <point x="541" y="375"/>
      <point x="544" y="459"/>
      <point x="550" y="546" type="curve"/>
      <point x="430" y="570" type="line"/>
      <point x="410" y="384"/>
      <point x="403" y="260"/>
      <point x="403" y="66" type="curve" smooth="yes"/>
      <point x="403" y="63"/>
      <point x="413" y="54"/>
      <point x="413" y="52" type="curve"/>
      <point x="463" y="52"/>
      <point x="533" y="-41"/>
    </contour>
    <contour>
      <point x="571" y="-37" type="curve"/>
      <point x="425" y="60" type="line"/>
      <point x="422" y="19"/>
      <point x="419" y="2"/>
      <point x="381" y="2" type="curve" smooth="yes"/>
      <point x="353" y="2"/>
      <point x="342" y="14"/>
      <point x="342" y="37" type="curve" smooth="yes"/>
      <point x="342" y="57"/>
      <point x="357" y="67"/>
      <point x="374" y="67" type="curve" smooth="yes"/>
      <point x="406" y="67"/>
      <point x="419" y="44"/>
      <point x="432" y="-23" type="curve"/>
      <point x="577" y="-23" type="line"/>
      <point x="545" y="79"/>
      <point x="446" y="142"/>
      <point x="378" y="142" type="curve" smooth="yes"/>
      <point x="305" y="142"/>
      <point x="254" y="81"/>
      <point x="254" y="-2" type="curve" smooth="yes"/>
      <point x="254" y="-91"/>
      <point x="331" y="-154"/>
      <point x="411" y="-154" type="curve" smooth="yes"/>
      <point x="475" y="-154"/>
      <point x="548" y="-102"/>
    </contour>
    <contour>
      <point x="786" y="-215" type="line"/>
      <point x="770" y="-124"/>
      <point x="562" y="-4"/>
      <point x="483" y="29" type="curve"/>
      <point x="401" y="-47" type="line"/>
      <point x="513" y="-95"/>
      <point x="708" y="-156"/>
      <point x="755" y="-249" type="curve"/>
    </contour>
    <contour>
      <point x="441" y="260" type="line"/>
      <point x="421" y="413"/>
      <point x="345" y="511"/>
      <point x="248" y="511" type="curve" smooth="yes"/>
      <point x="165" y="511"/>
      <point x="108" y="443"/>
      <point x="108" y="343" type="curve" smooth="yes"/>
      <point x="108" y="222"/>
      <point x="177" y="148"/>
      <point x="268" y="148" type="curve" smooth="yes"/>
      <point x="286" y="148"/>
      <point x="299" y="150"/>
      <point x="303" y="153" type="curve"/>
      <point x="317" y="192"/>
      <point x="327" y="253"/>
      <point x="327" y="302" type="curve"/>
      <point x="308" y="293"/>
      <point x="284" y="289"/>
      <point x="265" y="289" type="curve" smooth="yes"/>
      <point x="221" y="289"/>
      <point x="192" y="310"/>
      <point x="192" y="335" type="curve" smooth="yes"/>
      <point x="192" y="359"/>
      <point x="210" y="373"/>
      <point x="244" y="373" type="curve" smooth="yes"/>
      <point x="321" y="373"/>
      <point x="401" y="267"/>
      <point x="405" y="160" type="curve"/>
    </contour>
    <contour>
      <point x="805" y="-216" type="move" name="blwm"/>
    </contour>
    <contour>
      <point x="535" y="-216" type="move" name="haln"/>
    </contour>
    <contour>
      <point x="734" y="690" type="move" name="reph"/>
    </contour>
    <contour>
      <point x="734" y="690" type="move" name="chandrabindu"/>
    </contour>
  </outline>
</glyph>
<glyph name="bn_nn_ba" format="1">
  <advance width="603"/>
  <outline>
    <contour>
      <point x="378" y="-204" type="curve"/>
      <point x="436.720496894" y="-204.0"/>
      <point x="501" y="-192"/>
      <point x="541" y="-167" type="curve"/>
      <point x="525" y="-100"/>
      <point x="505.0" y="158.437219731"/>
      <point x="505" y="288" type="curve" smooth="yes"/>
      <point x="505" y="352"/>
      <point x="504" y="376"/>
      <point x="513" y="440" type="curve" smooth="yes"/>
      <point x="517" y="468"/>
      <point x="542" y="485"/>
      <point x="572" y="494" type="curve" smooth="yes"/>
      <point x="582" y="497"/>
      <point x="595" y="501"/>
      <point x="603" y="504" type="curve"/>
      <point x="609" y="523"/>
      <point x="614" y="555"/>
      <point x="614" y="579" type="curve" smooth="yes"/>
      <point x="614" y="606"/>
      <point x="610" y="626"/>
      <point x="603" y="639" type="curve"/>
      <point x="556" y="631"/>
      <point x="512" y="621"/>
      <point x="466" y="604" type="curve" smooth="yes"/>
      <point x="419" y="587"/>
      <point x="394" y="567"/>
      <point x="384" y="522" type="curve" smooth="yes"/>
      <point x="361" y="417"/>
      <point x="359" y="275"/>
      <point x="359" y="112" type="curve" smooth="yes"/>
      <point x="359" y="49"/>
      <point x="372" y="-171"/>
    </contour>
    <contour>
      <point x="410" y="-149" type="line"/>
      <point x="390" y="-100"/>
      <point x="273" y="-40"/>
      <point x="206" y="-4" type="curve"/>
      <point x="189" y="-52" type="line"/>
      <point x="263" y="-4"/>
      <point x="376" y="19"/>
      <point x="466" y="36" type="curve"/>
      <point x="372" y="157" type="line"/>
      <point x="260" y="128"/>
      <point x="175" y="103"/>
      <point x="112" y="56" type="curve"/>
      <point x="101" y="-2"/>
      <point x="106" y="-48"/>
      <point x="127" y="-94" type="curve"/>
      <point x="206" y="-101"/>
      <point x="338" y="-147"/>
      <point x="378" y="-204" type="curve"/>
    </contour>
    <contour>
      <point x="414" y="304" type="line"/>
      <point x="414" y="502"/>
      <point x="340" y="657"/>
      <point x="213" y="657" type="curve" smooth="yes"/>
      <point x="111" y="657"/>
      <point x="50" y="558"/>
      <point x="50" y="442" type="curve" smooth="yes"/>
      <point x="50" y="322"/>
      <point x="116" y="227"/>
      <point x="208" y="227" type="curve" smooth="yes"/>
      <point x="280" y="227"/>
      <point x="329" y="285"/>
      <point x="329" y="352" type="curve" smooth="yes"/>
      <point x="329" y="361"/>
      <point x="328" y="366"/>
      <point x="327" y="369" type="curve"/>
      <point x="298" y="404"/>
      <point x="253" y="430"/>
      <point x="209" y="444" type="curve"/>
      <point x="212" y="432"/>
      <point x="213" y="418"/>
      <point x="213" y="408" type="curve" smooth="yes"/>
      <point x="213" y="377"/>
      <point x="204" y="343"/>
      <point x="178" y="343" type="curve" smooth="yes"/>
      <point x="161" y="343"/>
      <point x="148" y="357"/>
      <point x="148" y="386" type="curve" smooth="yes"/>
      <point x="148" y="431"/>
      <point x="179" y="472"/>
      <point x="231" y="472" type="curve" smooth="yes"/>
      <point x="283" y="472"/>
      <point x="363" y="432"/>
      <point x="363" y="343" type="curve" smooth="yes"/>
      <point x="363" y="326"/>
      <point x="363" y="289"/>
      <point x="361" y="241" type="curve"/>
    </contour>
    <contour>
      <point x="434" y="-173" type="move" name="blwm"/>
    </contour>
    <contour>
      <point x="253" y="-170" type="move" name="haln"/>
    </contour>
    <contour>
      <point x="448" y="690" type="move" name="reph"/>
    </contour>
    <contour>
      <point x="448" y="690" type="move" name="chandrabindu"/>
    </contour>
  </outline>
</glyph>
<glyph name="bn_p_na" format="1">
  <advance width="677"/>
  <outline>
    <contour>
      <point x="458" y="410" type="curve"/>
      <point x="397" y="541" type="line"/>
      <point x="313" y="428"/>
      <point x="213" y="344"/>
      <point x="121" y="275" type="curve"/>
      <point x="148" y="223"/>
      <point x="185" y="179"/>
      <point x="234" y="145" type="curve"/>
      <point x="326" y="225"/>
      <point x="415" y="321"/>
    </contour>
    <contour>
      <point x="250" y="657" type="curve" smooth="yes"/>
      <point x="163" y="657"/>
      <point x="74" y="601"/>
      <point x="10" y="518" type="curve"/>
      <point x="17" y="476"/>
      <point x="31" y="434"/>
      <point x="54" y="394" type="curve"/>
      <point x="104" y="394"/>
      <point x="152" y="372"/>
      <point x="152" y="329" type="curve" smooth="yes"/>
      <point x="152" y="311"/>
      <point x="147" y="294"/>
      <point x="130" y="281" type="curve"/>
      <point x="209" y="343" type="line"/>
      <point x="223" y="352"/>
      <point x="233" y="373"/>
      <point x="233" y="400" type="curve" smooth="yes"/>
      <point x="233" y="433"/>
      <point x="207" y="469"/>
      <point x="169" y="488" type="curve"/>
      <point x="151" y="425" type="line"/>
      <point x="195" y="489"/>
      <point x="229" y="514"/>
      <point x="276" y="514" type="curve" smooth="yes"/>
      <point x="351" y="514"/>
      <point x="437" y="449"/>
      <point x="437" y="326" type="curve"/>
      <point x="484" y="263" type="line"/>
      <point x="493" y="482"/>
      <point x="410" y="657"/>
    </contour>
    <contour>
      <point x="458" y="-234" type="curve"/>
      <point x="517.080745342" y="-234.0"/>
      <point x="577" y="-225"/>
      <point x="622" y="-203" type="curve"/>
      <point x="604" y="-130"/>
      <point x="579.0" y="148.186098655"/>
      <point x="579" y="288" type="curve" smooth="yes"/>
      <point x="579" y="352"/>
      <point x="578" y="376"/>
      <point x="587" y="440" type="curve" smooth="yes"/>
      <point x="591" y="468"/>
      <point x="616" y="485"/>
      <point x="646" y="494" type="curve" smooth="yes"/>
      <point x="656" y="497"/>
      <point x="669" y="501"/>
      <point x="677" y="504" type="curve"/>
      <point x="683" y="523"/>
      <point x="688" y="555"/>
      <point x="688" y="579" type="curve" smooth="yes"/>
      <point x="688" y="606"/>
      <point x="684" y="626"/>
      <point x="677" y="639" type="curve"/>
      <point x="630" y="631"/>
      <point x="586" y="621"/>
      <point x="540" y="604" type="curve" smooth="yes"/>
      <point x="493" y="587"/>
      <point x="468" y="567"/>
      <point x="458" y="522" type="curve" smooth="yes"/>
      <point x="435" y="417"/>
      <point x="433" y="275"/>
      <point x="433" y="112" type="curve" smooth="yes"/>
      <point x="433.0" y="43.0189873418"/>
      <point x="451.383864196" y="-197.611253078"/>
    </contour>
    <contour>
      <point x="473" y="-158" type="line"/>
      <point x="413" y="15"/>
      <point x="353" y="86"/>
      <point x="251" y="86" type="curve" smooth="yes"/>
      <point x="171" y="86"/>
      <point x="108" y="23"/>
      <point x="108" y="-64" type="curve" smooth="yes"/>
      <point x="108" y="-162"/>
      <point x="181" y="-242"/>
      <point x="266" y="-242" type="curve" smooth="yes"/>
      <point x="292" y="-242"/>
      <point x="323" y="-233"/>
      <point x="328" y="-229" type="curve"/>
      <point x="336" y="-193"/>
      <point x="335" y="-138"/>
      <point x="329" y="-96" type="curve"/>
      <point x="304" y="-111"/>
      <point x="271" y="-119"/>
      <point x="247" y="-119" type="curve" smooth="yes"/>
      <point x="211" y="-119"/>
      <point x="193" y="-106"/>
      <point x="193" y="-82" type="curve"/>
      <point x="193" y="-57"/>
      <point x="210" y="-39"/>
      <point x="257" y="-39" type="curve"/>
      <point x="358" y="-39"/>
      <point x="417" y="-98"/>
      <point x="458" y="-234" type="curve"/>
    </contour>
    <contour>
      <point x="510" y="690" type="move" name="reph"/>
    </contour>
    <contour>
      <point x="510" y="690" type="move" name="chandrabindu"/>
    </contour>
    <contour>
      <point x="508" y="-210" type="move" name="blwm"/>
    </contour>
    <contour>
      <point x="351" y="-200" type="move" name="haln"/>
    </contour>
  </outline>
</glyph>
<glyph name="bn_sh_na" format="1">
  <advance width="686"/>
  <outline>
    <contour>
      <point x="215" y="230"/>
      <point x="272" y="309"/>
      <point x="272" y="381" type="curve" smooth="yes"/>
      <point x="272" y="422"/>
      <point x="253" y="463"/>
      <point x="230" y="491" type="curve"/>
      <point x="171" y="453" type="line"/>
      <point x="194" y="428"/>
      <point x="202" y="400"/>
      <point x="202" y="374" type="curve" smooth="yes"/>
      <point x="202" y="337"/>
      <point x="186" y="311"/>
      <point x="167" y="311" type="curve" smooth="yes"/>
      <point x="154" y="311"/>
      <point x="148" y="323"/>
      <point x="148" y="337" type="curve" smooth="yes"/>
      <point x="148" y="370"/>
      <point x="182" y="420"/>
      <point x="217" y="420" type="curve"/>
      <point x="259" y="467" type="line"/>
      <point x="201" y="520" type="line"/>
      <point x="112" y="520"/>
      <point x="24" y="440"/>
      <point x="24" y="346" type="curve" smooth="yes"/>
      <point x="24" y="275"/>
      <point x="74" y="230"/>
      <point x="135" y="230" type="curve" smooth="yes"/>
    </contour>
    <contour>
      <point x="250" y="496" type="line"/>
      <point x="233" y="604"/>
      <point x="186" y="647"/>
      <point x="114" y="647" type="curve" smooth="yes"/>
      <point x="69" y="647"/>
      <point x="31" y="644"/>
      <point x="-1" y="639" type="curve"/>
      <point x="-8" y="625"/>
      <point x="-11" y="601"/>
      <point x="-11" y="576" type="curve" smooth="yes"/>
      <point x="-11" y="552"/>
      <point x="-6" y="520"/>
      <point x="0" y="504" type="curve"/>
      <point x="21" y="509"/>
      <point x="50" y="514"/>
      <point x="92" y="514" type="curve"/>
      <point x="170" y="514"/>
      <point x="219" y="495"/>
      <point x="219" y="458" type="curve"/>
    </contour>
    <contour>
      <point x="397" y="226"/>
      <point x="448" y="272"/>
      <point x="448" y="346" type="curve" smooth="yes"/>
      <point x="448" y="428"/>
      <point x="385" y="494"/>
      <point x="298" y="507" type="curve"/>
      <point x="274" y="428" type="line"/>
      <point x="327" y="426"/>
      <point x="373" y="386"/>
      <point x="373" y="344" type="curve" smooth="yes"/>
      <point x="373" y="327"/>
      <point x="365" y="319"/>
      <point x="355" y="319" type="curve" smooth="yes"/>
      <point x="332" y="319"/>
      <point x="314" y="356"/>
      <point x="314" y="392" type="curve" smooth="yes"/>
      <point x="314" y="414"/>
      <point x="321" y="434"/>
      <point x="338" y="444" type="curve"/>
      <point x="280" y="504" type="line"/>
      <point x="242" y="475"/>
      <point x="206" y="427"/>
      <point x="206" y="366" type="curve" smooth="yes"/>
      <point x="206" y="296"/>
      <point x="254" y="226"/>
      <point x="333" y="226" type="curve" smooth="yes"/>
    </contour>
    <contour>
      <point x="525" y="518"/>
      <point x="463" y="659"/>
      <point x="370" y="659" type="curve" smooth="yes"/>
      <point x="296" y="659"/>
      <point x="239" y="579"/>
      <point x="225" y="473" type="curve"/>
      <point x="296" y="427" type="line"/>
      <point x="315" y="459"/>
      <point x="341" y="498"/>
      <point x="386" y="498" type="curve" smooth="yes"/>
      <point x="435" y="498"/>
      <point x="478" y="454"/>
      <point x="478" y="390" type="curve"/>
      <point x="518" y="331" type="line"/>
    </contour>
    <contour>
      <point x="494" y="-236" type="curve"/>
      <point x="552" y="-236"/>
      <point x="620" y="-222"/>
      <point x="658" y="-200" type="curve"/>
      <point x="639.930274819" y="-127.721099275"/>
      <point x="613.0" y="149.040358744"/>
      <point x="613" y="288" type="curve" smooth="yes"/>
      <point x="613" y="352"/>
      <point x="614" y="386"/>
      <point x="621" y="450" type="curve" smooth="yes"/>
      <point x="623" y="471"/>
      <point x="631" y="487"/>
      <point x="654" y="494" type="curve" smooth="yes"/>
      <point x="667" y="498"/>
      <point x="677" y="501"/>
      <point x="686" y="504" type="curve"/>
      <point x="692" y="523"/>
      <point x="697" y="552"/>
      <point x="697" y="576" type="curve" smooth="yes"/>
      <point x="697" y="603"/>
      <point x="693" y="626"/>
      <point x="686" y="639" type="curve"/>
      <point x="646" y="632"/>
      <point x="607" y="623"/>
      <point x="567" y="608" type="curve" smooth="yes"/>
      <point x="531" y="596"/>
      <point x="511" y="561"/>
      <point x="503" y="524" type="curve" smooth="yes"/>
      <point x="501" y="513"/>
      <point x="498" y="501"/>
      <point x="496" y="489" type="curve"/>
      <point x="481" y="427" type="line"/>
      <point x="471" y="337"/>
      <point x="467" y="230"/>
      <point x="467" y="112" type="curve" smooth="yes"/>
      <point x="467.0" y="42.6202531646"/>
      <point x="484.948341306" y="-128.385835528"/>
    </contour>
    <contour>
      <point x="392.891118504" y="-185.513298483"/>
      <point x="392.469697667" y="-135.287883669"/>
      <point x="387" y="-97" type="curve"/>
      <point x="362" y="-112"/>
      <point x="329" y="-120"/>
      <point x="305" y="-120" type="curve" smooth="yes"/>
      <point x="272" y="-120"/>
      <point x="251" y="-104"/>
      <point x="251" y="-86" type="curve" smooth="yes"/>
      <point x="251" y="-65"/>
      <point x="277" y="-48"/>
      <point x="313" y="-48" type="curve" smooth="yes"/>
      <point x="395.0" y="-48.0"/>
      <point x="480.862237761" y="-127.866110798"/>
      <point x="494" y="-236" type="curve"/>
      <point x="509" y="-106" type="line"/>
      <point x="468" y="17"/>
      <point x="388" y="73"/>
      <point x="305" y="73" type="curve" smooth="yes"/>
      <point x="227" y="73"/>
      <point x="166" y="15"/>
      <point x="166" y="-65" type="curve" smooth="yes"/>
      <point x="166.0" y="-167.761904762"/>
      <point x="239.0" y="-231.0"/>
      <point x="324" y="-231" type="curve" smooth="yes"/>
      <point x="350" y="-231"/>
      <point x="381" y="-222"/>
      <point x="386" y="-218" type="curve"/>
    </contour>
    <contour>
      <point x="551" y="690" type="move" name="reph"/>
    </contour>
    <contour>
      <point x="551" y="690" type="move" name="chandrabindu"/>
    </contour>
    <contour>
      <point x="546" y="-207" type="move" name="blwm"/>
    </contour>
    <contour>
      <point x="382" y="-196" type="move" name="haln"/>
    </contour>
  </outline>
</glyph>
<glyph name="bn_ss_pha" format="1">
  <advance width="979"/>
  <outline>
    <contour>
      <point x="482" y="531" type="curve" smooth="yes"/>
      <point x="664" y="531"/>
      <point x="868" y="524"/>
      <point x="979" y="504" type="curve"/>
      <point x="984" y="523"/>
      <point x="987" y="550"/>
      <point x="987" y="577" type="curve" smooth="yes"/>
      <point x="987" y="600"/>
      <point x="985" y="622"/>
      <point x="979" y="639" type="curve"/>
      <point x="881" y="663"/>
      <point x="673" y="670"/>
      <point x="486" y="670" type="curve" smooth="yes"/>
      <point x="274" y="670"/>
      <point x="110" y="659"/>
      <point x="0" y="639" type="curve"/>
      <point x="-7" y="626"/>
      <point x="-10" y="604"/>
      <point x="-10" y="581" type="curve" smooth="yes"/>
      <point x="-10" y="553"/>
      <point x="-6" y="523"/>
      <point x="0" y="504" type="curve"/>
      <point x="113" y="521"/>
      <point x="271" y="531"/>
    </contour>
    <contour>
      <point x="756" y="-217" type="curve"/>
      <point x="733" y="-144"/>
      <point x="724" y="-41"/>
      <point x="724" y="93" type="curve" smooth="yes"/>
      <point x="724" y="111"/>
      <point x="724" y="130"/>
      <point x="725" y="149" type="curve"/>
      <point x="690" y="118" type="line"/>
      <point x="770" y="119"/>
      <point x="841" y="122"/>
      <point x="841" y="91" type="curve" smooth="yes"/>
      <point x="841" y="67"/>
      <point x="791" y="30"/>
      <point x="745" y="18" type="curve"/>
      <point x="769" y="-41"/>
      <point x="816" y="-84"/>
      <point x="855" y="-92" type="curve"/>
      <point x="896" y="-62"/>
      <point x="936" y="-12"/>
      <point x="936" y="68" type="curve" smooth="yes"/>
      <point x="936" y="196"/>
      <point x="812" y="297"/>
      <point x="602" y="297" type="curve"/>
      <point x="584" y="160"/>
      <point x="578" y="52"/>
      <point x="578" y="-103" type="curve" smooth="yes"/>
      <point x="578" y="-156"/>
      <point x="576" y="-207"/>
      <point x="588" y="-250" type="curve"/>
      <point x="640" y="-250"/>
      <point x="711" y="-240"/>
    </contour>
    <contour>
      <point x="625" y="-186" type="line"/>
      <point x="589" y="-93"/>
      <point x="514" y="-20"/>
      <point x="424" y="26" type="curve"/>
      <point x="405" y="-53" type="line"/>
      <point x="570" y="149" type="line"/>
      <point x="425" y="243" type="line"/>
      <point x="263" y="72" type="line"/>
      <point x="267" y="15"/>
      <point x="300" y="-45"/>
      <point x="350" y="-87" type="curve"/>
      <point x="445" y="-104"/>
      <point x="526" y="-154"/>
      <point x="588" y="-250" type="curve"/>
    </contour>
    <contour>
      <point x="570" y="149" type="line"/>
      <point x="534" y="184" type="line" smooth="yes"/>
      <point x="472" y="244"/>
      <point x="451" y="282"/>
      <point x="411" y="317" type="curve"/>
      <point x="320" y="294" type="line"/>
      <point x="357" y="248"/>
      <point x="393" y="207"/>
      <point x="435" y="179" type="curve"/>
    </contour>
    <contour>
      <point x="487" y="453" type="curve"/>
      <point x="487" y="551"/>
      <point x="411" y="627"/>
      <point x="315" y="627" type="curve" smooth="yes"/>
      <point x="154" y="627"/>
      <point x="50" y="478"/>
      <point x="50" y="343" type="curve"/>
      <point x="50" y="245"/>
      <point x="126" y="169"/>
      <point x="222" y="169" type="curve" smooth="yes"/>
      <point x="383" y="169"/>
      <point x="487" y="318"/>
    </contour>
    <contour>
      <point x="173" y="316" type="curve" smooth="yes"/>
      <point x="173" y="378"/>
      <point x="261" y="523"/>
      <point x="324" y="523" type="curve" smooth="yes"/>
      <point x="343" y="523"/>
      <point x="358" y="509"/>
      <point x="358" y="484" type="curve" smooth="yes"/>
      <point x="358" y="422"/>
      <point x="269" y="279"/>
      <point x="206" y="279" type="curve" smooth="yes"/>
      <point x="188" y="279"/>
      <point x="173" y="292"/>
    </contour>
    <contour>
      <point x="404" y="328" type="line"/>
      <point x="317" y="390"/>
      <point x="229" y="468"/>
      <point x="159" y="539" type="curve"/>
      <point x="109" y="470" type="line"/>
      <point x="181" y="401"/>
      <point x="274" y="327"/>
      <point x="354" y="258" type="curve"/>
    </contour>
    <contour>
      <point x="642" y="-224" type="move" name="blwm"/>
    </contour>
    <contour>
      <point x="445" y="-220" type="move" name="haln"/>
    </contour>
    <contour>
      <point x="553" y="690" type="move" name="reph"/>
    </contour>
    <contour>
      <point x="553" y="690" type="move" name="chandrabindu"/>
    </contour>
  </outline>
</glyph>
<glyph name="bn_tth_ra" format="1">
  <advance width="516"/>
  <outline>
    <contour>
      <point x="368" y="-238" type="curve"/>
      <point x="346.846153846" y="-176.461538462"/>
      <point x="352.083333333" y="-56.6666666667"/>
      <point x="375" y="60" type="curve"/>
      <point x="256" y="12" type="line"/>
      <point x="229" y="-75"/>
      <point x="205" y="-198"/>
      <point x="217" y="-259" type="curve"/>
      <point x="263" y="-261"/>
      <point x="326" y="-257"/>
    </contour>
    <contour>
      <point x="241" y="-216" type="line"/>
      <point x="221" y="-78"/>
      <point x="182" y="-60"/>
      <point x="138" y="-60" type="curve" smooth="yes"/>
      <point x="123" y="-60"/>
      <point x="96" y="-62"/>
      <point x="84" y="-62" type="curve" smooth="yes"/>
      <point x="64" y="-62"/>
      <point x="49" y="-48"/>
      <point x="49" y="-27" type="curve" smooth="yes"/>
      <point x="49" y="-11"/>
      <point x="54" y="7"/>
      <point x="59" y="23" type="curve"/>
      <point x="34" y="33"/>
      <point x="-3" y="40"/>
      <point x="-40" y="40" type="curve"/>
      <point x="-57" y="6"/>
      <point x="-69" y="-35"/>
      <point x="-69" y="-79" type="curve" smooth="yes"/>
      <point x="-69" y="-154"/>
      <point x="-10" y="-203"/>
      <point x="84" y="-203" type="curve" smooth="yes"/>
      <point x="113" y="-203"/>
      <point x="139" y="-201"/>
      <point x="165" y="-201" type="curve" smooth="yes"/>
      <point x="195" y="-201"/>
      <point x="205" y="-227"/>
      <point x="217" y="-259" type="curve"/>
    </contour>
    <contour>
      <point x="391" y="-37"/>
      <point x="481" y="73"/>
      <point x="481" y="231" type="curve" smooth="yes"/>
      <point x="481" y="393"/>
      <point x="387" y="544"/>
      <point x="299" y="657" type="curve"/>
      <point x="216" y="656" type="line"/>
      <point x="286" y="555"/>
      <point x="348" y="452"/>
      <point x="348" y="318" type="curve" smooth="yes"/>
      <point x="348" y="207"/>
      <point x="286" y="92"/>
      <point x="186" y="92" type="curve" smooth="yes"/>
      <point x="119" y="92"/>
      <point x="77" y="141"/>
      <point x="77" y="213" type="curve"/>
      <point x="68" y="92" type="line"/>
      <point x="229" y="130"/>
      <point x="308" y="260"/>
      <point x="308" y="431" type="curve" smooth="yes"/>
      <point x="308" y="495"/>
      <point x="294" y="552"/>
      <point x="266" y="611" type="curve"/>
      <point x="196" y="609" type="line"/>
      <point x="205" y="584"/>
      <point x="211" y="553"/>
      <point x="211" y="522" type="curve" smooth="yes"/>
      <point x="211" y="380"/>
      <point x="105" y="277"/>
      <point x="25" y="237" type="curve"/>
      <point x="24" y="225"/>
      <point x="23" y="213"/>
      <point x="23" y="201" type="curve" smooth="yes"/>
      <point x="23" y="62"/>
      <point x="103" y="-37"/>
      <point x="244" y="-37" type="curve" smooth="yes"/>
    </contour>
    <contour>
      <point x="77" y="518"/>
      <point x="176" y="531"/>
      <point x="258" y="531" type="curve" smooth="yes"/>
      <point x="340" y="531"/>
      <point x="439" y="518"/>
      <point x="516" y="504" type="curve"/>
      <point x="522" y="523"/>
      <point x="527" y="554"/>
      <point x="527" y="582" type="curve" smooth="yes"/>
      <point x="527" y="605"/>
      <point x="524" y="626"/>
      <point x="516" y="639" type="curve"/>
      <point x="440" y="656"/>
      <point x="341" y="670"/>
      <point x="258" y="670" type="curve" smooth="yes"/>
      <point x="175" y="670"/>
      <point x="76" y="656"/>
      <point x="0" y="639" type="curve"/>
      <point x="-8" y="626"/>
      <point x="-11" y="605"/>
      <point x="-11" y="582" type="curve" smooth="yes"/>
      <point x="-11" y="554"/>
      <point x="-6" y="523"/>
      <point x="0" y="504" type="curve"/>
    </contour>
    <contour>
      <point x="335" y="634" type="line"/>
      <point x="295" y="693"/>
      <point x="264" y="754"/>
      <point x="264" y="816" type="curve" smooth="yes"/>
      <point x="264" y="867"/>
      <point x="288" y="920"/>
      <point x="317" y="947" type="curve"/>
      <point x="285" y="974"/>
      <point x="251" y="993"/>
      <point x="212" y="1007" type="curve"/>
      <point x="173" y="960"/>
      <point x="152" y="898"/>
      <point x="152" y="838" type="curve" smooth="yes"/>
      <point x="152" y="762"/>
      <point x="189" y="691"/>
      <point x="228" y="631" type="curve"/>
    </contour>
    <contour>
      <point x="313" y="670" type="move" name="reph"/>
    </contour>
    <contour>
      <point x="486" y="690" type="move" name="chandrabindu"/>
    </contour>
    <contour>
      <point x="268" y="-225" type="move" name="blwm"/>
    </contour>
    <contour>
      <point x="163" y="-220" type="move" name="haln"/>
    </contour>
  </outline>
</glyph>
<glyph name="bn_ttha.half" format="1">
  <advance width="516"/>
  <outline>
    <contour>
      <point x="391" y="141"/>
      <point x="481" y="222"/>
      <point x="481" y="340" type="curve" smooth="yes"/>
      <point x="481" y="460"/>
      <point x="387" y="573"/>
      <point x="299" y="657" type="curve"/>
      <point x="216" y="656" type="line"/>
      <point x="285.68237177" y="581.34031596"/>
      <point x="341" y="500"/>
      <point x="341" y="396" type="curve" smooth="yes"/>
      <point x="341" y="317"/>
      <point x="281.679012346" y="237.0"/>
      <point x="186" y="237" type="curve" smooth="yes"/>
      <point x="119" y="237"/>
      <point x="77" y="273"/>
      <point x="77" y="327" type="curve"/>
      <point x="68" y="237" type="line"/>
      <point x="233.487475786" y="265.780430572"/>
      <point x="315" y="360"/>
      <point x="315" y="485" type="curve" smooth="yes"/>
      <point x="315" y="534"/>
      <point x="295.990243219" y="575.872474941"/>
      <point x="266" y="623" type="curve"/>
      <point x="196" y="622" type="line"/>
      <point x="205" y="603"/>
      <point x="211" y="579"/>
      <point x="211" y="556" type="curve" smooth="yes"/>
      <point x="211" y="451"/>
      <point x="105" y="375"/>
      <point x="25" y="344" type="curve"/>
      <point x="24" y="335"/>
      <point x="23" y="327"/>
      <point x="23" y="318" type="curve" smooth="yes"/>
      <point x="23" y="214"/>
      <point x="103" y="141"/>
      <point x="244" y="141" type="curve" smooth="yes"/>
    </contour>
    <contour>
      <point x="77" y="518"/>
      <point x="176" y="531"/>
      <point x="258" y="531" type="curve" smooth="yes"/>
      <point x="340" y="531"/>
      <point x="439" y="518"/>
      <point x="516" y="504" type="curve"/>
      <point x="522" y="523"/>
      <point x="527" y="554"/>
      <point x="527" y="582" type="curve" smooth="yes"/>
      <point x="527" y="605"/>
      <point x="524" y="626"/>
      <point x="516" y="639" type="curve"/>
      <point x="440" y="656"/>
      <point x="341" y="670"/>
      <point x="258" y="670" type="curve" smooth="yes"/>
      <point x="175" y="670"/>
      <point x="76" y="656"/>
      <point x="0" y="639" type="curve"/>
      <point x="-8" y="626"/>
      <point x="-11" y="605"/>
      <point x="-11" y="582" type="curve" smooth="yes"/>
      <point x="-11" y="554"/>
      <point x="-6" y="523"/>
      <point x="0" y="504" type="curve"/>
    </contour>
    <contour>
      <point x="335" y="634" type="line"/>
      <point x="295" y="693"/>
      <point x="264" y="754"/>
      <point x="264" y="816" type="curve" smooth="yes"/>
      <point x="264" y="867"/>
      <point x="288" y="920"/>
      <point x="317" y="947" type="curve"/>
      <point x="285" y="974"/>
      <point x="251" y="993"/>
      <point x="212" y="1007" type="curve"/>
      <point x="173" y="960"/>
      <point x="152" y="898"/>
      <point x="152" y="838" type="curve" smooth="yes"/>
      <point x="152" y="762"/>
      <point x="189" y="691"/>
      <point x="228" y="631" type="curve"/>
    </contour>
  </outline>
</glyph>
<glyph name="bn_y_ra" format="1">
  <advance width="550"/>
  <outline>
    <contour>
      <point x="273" y="531" type="curve" smooth="yes"/>
      <point x="381" y="531"/>
      <point x="490" y="518"/>
      <point x="550" y="504" type="curve"/>
      <point x="555" y="521"/>
      <point x="559" y="551"/>
      <point x="559" y="579" type="curve" smooth="yes"/>
      <point x="559" y="602"/>
      <point x="557" y="624"/>
      <point x="550" y="639" type="curve"/>
      <point x="495" y="656"/>
      <point x="390" y="670"/>
      <point x="279" y="670" type="curve" smooth="yes"/>
      <point x="169" y="670"/>
      <point x="68" y="656"/>
      <point x="0" y="639" type="curve"/>
      <point x="-7" y="626"/>
      <point x="-10" y="604"/>
      <point x="-10" y="581" type="curve" smooth="yes"/>
      <point x="-10" y="553"/>
      <point x="-6" y="523"/>
      <point x="0" y="504" type="curve"/>
      <point x="69" y="518"/>
      <point x="166" y="531"/>
    </contour>
    <contour>
      <point x="510" y="-177" type="curve"/>
      <point x="481" y="-63"/>
      <point x="474" y="106"/>
      <point x="474" y="292" type="curve" smooth="yes"/>
      <point x="474" y="385"/>
      <point x="477" y="460"/>
      <point x="483" y="538" type="curve"/>
      <point x="363" y="560" type="line"/>
      <point x="343" y="393"/>
      <point x="336" y="282"/>
      <point x="336" y="107" type="curve" smooth="yes"/>
      <point x="336" y="-3"/>
      <point x="340" y="-108"/>
      <point x="344" y="-199" type="curve"/>
      <point x="396" y="-199"/>
      <point x="466" y="-193"/>
    </contour>
    <contour>
      <point x="368" y="-156" type="line"/>
      <point x="347" y="-10"/>
      <point x="262" y="7"/>
      <point x="183" y="7" type="curve" smooth="yes"/>
      <point x="166" y="7"/>
      <point x="135" y="5"/>
      <point x="121" y="5" type="curve" smooth="yes"/>
      <point x="95" y="5"/>
      <point x="76" y="19"/>
      <point x="76" y="40" type="curve" smooth="yes"/>
      <point x="76" y="56"/>
      <point x="81" y="74"/>
      <point x="86" y="90" type="curve"/>
      <point x="61" y="100"/>
      <point x="24" y="107"/>
      <point x="-13" y="107" type="curve"/>
      <point x="-30" y="73"/>
      <point x="-42" y="32"/>
      <point x="-42" y="-12" type="curve" smooth="yes"/>
      <point x="-42" y="-87"/>
      <point x="21" y="-136"/>
      <point x="121" y="-136" type="curve" smooth="yes"/>
      <point x="153" y="-136"/>
      <point x="181" y="-134"/>
      <point x="210" y="-134" type="curve" smooth="yes"/>
      <point x="287" y="-134"/>
      <point x="330" y="-161"/>
      <point x="344" y="-199" type="curve"/>
    </contour>
    <contour>
      <point x="381" y="34" type="line"/>
      <point x="346" y="127"/>
      <point x="272" y="200"/>
      <point x="184" y="246" type="curve"/>
      <point x="167" y="156" type="line"/>
      <point x="330" y="369" type="line"/>
      <point x="185" y="463" type="line"/>
      <point x="25" y="281" type="line"/>
      <point x="29" y="228"/>
      <point x="61" y="172"/>
      <point x="110" y="133" type="curve"/>
      <point x="203" y="116"/>
      <point x="283" y="66"/>
      <point x="344" y="-30" type="curve"/>
    </contour>
    <contour>
      <point x="330" y="369" type="line"/>
      <point x="294" y="404" type="line" smooth="yes"/>
      <point x="245" y="450"/>
      <point x="214" y="501"/>
      <point x="212" y="540" type="curve"/>
      <point x="23" y="527" type="line"/>
      <point x="23" y="471"/>
      <point x="139" y="437"/>
      <point x="195" y="399" type="curve"/>
    </contour>
    <contour>
      <point x="400" y="-175" type="move" name="blwm"/>
    </contour>
    <contour>
      <point x="237" y="-166" type="move" name="haln"/>
    </contour>
    <contour>
      <point x="429" y="690" type="move" name="reph"/>
    </contour>
    <contour>
      <point x="429" y="690" type="move" name="chandrabindu"/>
    </contour>
  </outline>
</glyph>
